<svg xmlns="http://www.w3.org/2000/svg" xmlns:xlink="http://www.w3.org/1999/xlink" width="100%" height="100%" fill-rule="evenodd" stroke-linejoin="round" stroke-miterlimit="1.414" clip-rule="evenodd" preserveAspectRatio="none" version="1.1" viewBox="0 0 640 480" xml:space="preserve"><path fill="#000" d="M640,0L640,480L0,480L0,0L640,0ZM576,64L64,64L64,416L576,416L576,64Z"/><g><path fill="#000" d="M85,86L214,86L171.127,128.873L259.882,217.627L214.627,262.882L125.873,174.127L85,215L85,86Z" transform="matrix(1,0,0,1,284.118,121.118)"/></g><g><path fill="#000" d="M85,86L214,86L171.127,128.873L259.882,217.627L214.627,262.882L125.873,174.127L85,215L85,86Z" transform="matrix(-1,5.66554e-16,-5.66554e-16,-1,355.882,358.882)"/></g></svg>